<svg id="Layer_1" data-name="Layer 1" xmlns="http://www.w3.org/2000/svg" viewBox="0 0 460.45 716.18"><defs><style>.cls-1{font-size:36px;font-family:Poppins-Bold, Poppins;font-weight:700;}.cls-1,.cls-3,.cls-6{fill:#2b4141;}.cls-2{fill:#639a88;}.cls-4,.cls-5{fill:none;stroke:#2b4141;}.cls-4,.cls-5,.cls-6{stroke-miterlimit:10;}.cls-5,.cls-6{stroke-width:4px;}.cls-6{stroke:#639a88;}</style></defs><text class="cls-1" transform="translate(101.38 579.18)">2. Catch them</text><path class="cls-2" d="M52.68,430.46C14.93,394.81-4.79,341,1,289.37c2.86-25.5,13-52.06,34.63-65.86,9.37-6,20.56-9.35,28.4-17.23,20.83-20.92,6-55.53-4.17-83.25C45.85,84.85,46.65,35,79.8,11.4,111.27-11,157,2.22,185.54,28.22c35.31,32.17,26.72,65.21,67.65,93.61,8.56,5.94,27.38,11.28,64.67,21.7,86.82,24.27,107.22,24,124.93,46.09,16.89,21.12,18.33,45.58,17.47,53.67a113.49,113.49,0,0,1-48.92,81c-45.12,30.25-81.51,6.84-104.24,35.95-17.07,21.86-1.56,41.59-20.57,70.66-16.45,25.16-43.67,34.22-59.09,39.36C174.8,487.79,103,478,52.68,430.46Z"/><ellipse class="cls-3" cx="183.42" cy="304.8" rx="23.5" ry="12" transform="translate(-153.92 191.9) rotate(-40.46)"/><ellipse class="cls-4" cx="196.4" cy="320.02" rx="23.5" ry="12" transform="translate(-138.17 490.45) rotate(-85.46)"/><ellipse class="cls-4" cx="169.79" cy="288.82" rx="12" ry="23.5" transform="matrix(0.08, -1, 1, 0.08, -131.57, 435.21)"/><path class="cls-5" d="M279.85,211.31V358.56a60.85,60.85,0,0,1-60.67,60.67H161a60.85,60.85,0,0,1-60.67-60.67V211.31a10.65,10.65,0,0,1,3.08-7.48,27.69,27.69,0,0,0,5.88,3c14.55,5.78,45.26,9.77,80.78,9.77s66.23-4,80.78-9.77a27.93,27.93,0,0,0,5.88-3A10.65,10.65,0,0,1,279.85,211.31Z"/><path class="cls-5" d="M279.85,181.55v17.77c0,1.56-1.07,3.07-3.08,4.51a27.93,27.93,0,0,1-5.88,3c-14.55,5.78-45.26,9.77-80.78,9.77s-66.23-4-80.78-9.77a27.69,27.69,0,0,1-5.88-3c-2-1.44-3.08-3-3.08-4.51V181.55c0,3.24,4.63,6.29,12.68,8.88,15.69,5.06,44.33,8.44,77.06,8.44s61.37-3.38,77.05-8.44C275.22,187.84,279.85,184.79,279.85,181.55Z"/><path class="cls-5" d="M279.85,181.55c0,3.24-4.63,6.29-12.69,8.88-15.68,5.06-44.32,8.44-77.05,8.44s-61.37-3.38-77.06-8.44c-8-2.59-12.68-5.64-12.68-8.88,0-3.82,6.4-7.35,17.25-10.22,16.32-4.31,42.71-7.11,72.49-7.11s56.16,2.8,72.49,7.11C273.44,174.2,279.85,177.73,279.85,181.55Z"/><path class="cls-6" d="M353.89,119.25,349,137.46c-.76,2.78-4.77,4.51-11.29,5.25-16.52,1.88-49.1-2.57-85.5-12.44s-66.77-22.51-80.07-32.48c-5.25-3.94-7.84-7.45-7.09-10.23L170,69.35c-.91,3.32,3,7.73,10.53,12.63,14.66,9.54,43.07,21,76.62,30.07s63.83,13.6,81.31,12.78C347.39,124.41,353,122.57,353.89,119.25Z"/><path class="cls-6" d="M353.89,119.25c-.91,3.32-6.5,5.16-15.48,5.58-17.48.82-47.77-3.67-81.31-12.78s-62-20.53-76.62-30.07C172.94,77.08,169,72.67,170,69.35c1.06-3.92,8.6-5.75,20.52-5.68,17.93.12,45.75,4.59,76.26,12.87S323.51,95,339,104C349.36,109.94,355,115.33,353.89,119.25Z"/></svg>