<svg id="Layer_1" data-name="Layer 1" xmlns="http://www.w3.org/2000/svg" viewBox="0 0 415.18 731.21"><defs><style>.cls-1{font-size:36px;font-family:Poppins-Bold, Poppins;font-weight:700;}.cls-1,.cls-3{fill:#2b4141;}.cls-2{fill:#639a88;}.cls-3{stroke:#639a88;stroke-miterlimit:10;stroke-width:4px;}</style></defs><text class="cls-1" transform="translate(86.39 594.22)">3. Send them</text><path class="cls-2" d="M317,74.27c-10.4-53.93-73.51-88.43-125.55-68.62-47.18,18-76.18,69-122.13,90.23-12.23,5.65-25.48,9.08-36.76,16.57C10.16,127.33-.26,156,0,182.5s9.47,51.61,18.55,76.1L58,365c10,27,20.69,55,41.83,74,23,20.67,56.07,27.91,87.36,23.61,33.69-4.63,66.56-22.61,86.91-50.79s26.83-66.54,13.87-97.53c-20.43-48.81-24.74-64.9,5.52-110.95C317.49,166.8,325.29,117.39,317,74.27Z"/><rect class="cls-3" x="204.89" y="163.46" width="207.3" height="173.88" transform="translate(617.07 500.79) rotate(180)"/><polygon class="cls-3" points="151.64 222.97 204.48 163.26 204.48 340.54 151.64 400.26 151.64 222.97"/><rect class="cls-3" x="151.64" y="224.48" width="207.3" height="173.88"/><polygon class="cls-3" points="413.18 338.7 360.18 395.7 359.94 226.55 413.18 167.7 413.18 338.7"/><polygon class="cls-3" points="308.46 21.32 332.41 78.98 291.69 118.69 267.71 60.97 308.28 21.39 308.46 21.32"/><polygon class="cls-3" points="101.11 196.98 99.82 198.24 99.57 197.62 101.11 196.98"/><polygon class="cls-3" points="300.85 23.4 260.27 62.98 260.48 63.47 118.22 122.57 118.13 122.38 69.34 142.65 69.13 142.16 109.85 102.45 109.96 102.71 300.85 23.4"/><rect class="cls-3" x="79.87" y="98.89" width="207.3" height="61.31" transform="translate(-35.66 80.33) rotate(-22.56)"/><polygon class="cls-3" points="307.99 21.26 308.02 21.33 307.85 21.4 307.99 21.26"/></svg>