<svg id="Layer_1" data-name="Layer 1" xmlns="http://www.w3.org/2000/svg" viewBox="0 0 402.21 823.03"><defs><style>.cls-1{font-size:36px;font-family:Poppins-Bold, Poppins;font-weight:700;}.cls-1,.cls-4,.cls-6{fill:#2b4141;}.cls-2{fill:#639a88;}.cls-3,.cls-5,.cls-7{fill:none;stroke:#2b4141;}.cls-3,.cls-4,.cls-5,.cls-7{stroke-miterlimit:10;}.cls-3{stroke-width:6px;}.cls-4{stroke:#639a88;}.cls-4,.cls-5{stroke-width:4px;}</style></defs><text class="cls-1" transform="translate(93.53 686.03)">1. Find them</text><path class="cls-2" d="M148.45,141.61c23.59-11.55,50.1-15.36,76.11-19,37.47-5.27,78.78-9.76,110.35,11.12C362,151.63,375.13,184,386.72,214.32c8.21,21.53,16.56,43.83,15.38,66.84-2,38.08-29.6,71.35-31.06,109.45C370,418.67,383.18,445,390.72,472s7.7,60.22-13.6,78.52c-11.88,10.2-28,13.55-43.37,16.55-23.88,4.65-48.19,9.33-72.39,6.77s-48.7-13.48-61.88-33.94c-7.75-12-11.22-26.68-20.25-37.8-32.71-40.24-105.94-6.51-145.79-39.69C8.08,441.32,8.19,401.08,22.11,371.15s38.34-53.46,57.42-80.39C116.81,238.14,83.05,173.62,148.45,141.61Z"/><path class="cls-3" d="M305.86,251.67C316,263.32,322,278.5,321.55,293.94c-.26,8.61-2.32,17.13-2,25.73,1.15,29.72,30.18,56.55,21.2,84.9-2.49,7.85-7.71,14.52-11.23,22-7,14.85-7.08,32.1-12.68,47.57s-21,30.15-36.76,25.35c-6.82-2.09-12.1-7.4-17.07-12.52q-15.16-15.65-30.34-31.3c-3.23-3.33-6.6-6.75-10.94-8.4-12.22-4.63-24.2,6.38-36.44,10.95-14.73,5.5-38.08,3.87-46.15-8.27-4.15-6.23-3.36-14.08-2.15-19.4"/><path class="cls-4" d="M185,310.47c-45.21,45.21-71.08,94.54-63.44,117.85L4.51,545.4a8.56,8.56,0,0,0,12.11,12.11L133.76,440.37c23.38,7.44,72.58-18.41,117.66-63.5,50.89-50.89,77.28-107,59-125.35S235.91,259.58,185,310.47Zm54.33,51.16c-31.86,31.86-64.8,53.78-85.11,58.25-7.41,1.64-13.14.95-16.52-2.43a10.27,10.27,0,0,1-2.12-3.15c-6.91-15.9,17.52-58.07,57.94-98.48,43.47-43.47,89-68.46,101.62-55.81S282.82,318.16,239.35,361.63Z"/><path class="cls-5" d="M302.72,2.54A124.42,124.42,0,0,0,240,12.83c-12.06,5.49-41.84,19-54.91,51.89-2.26,5.67-9.76,25.33-4,49.33,5.37,22.34,24.14,56.4,58.91,59.69,25.77,2.43,49.25-13.55,60.81-32.74,19.24-31.95,7-75.41-18.71-95.43-37.75-29.44-93.22.57-109.46,9.36C135,75.35,93.5,118.87,95,171.87c.3,10.34,1.47,37,21.51,60.81,21,24.89,48.88,30.47,57.07,31.8"/><ellipse class="cls-6" cx="173.97" cy="264.47" rx="11.23" ry="21.98" transform="translate(-126.83 363.11) rotate(-74.82)"/><ellipse class="cls-7" cx="169.07" cy="282.52" rx="21.98" ry="11.23" transform="translate(-118.11 121.48) rotate(-29.82)"/><ellipse class="cls-7" cx="179.11" cy="245.51" rx="11.23" ry="21.98" transform="translate(-98.37 121.58) rotate(-29.82)"/></svg>